<?xml version="1.0" standalone="no"?>
<!DOCTYPE svg PUBLIC "-//W3C//DTD SVG 20010904//EN"
 "http://www.w3.org/TR/2001/REC-SVG-20010904/DTD/svg10.dtd">
<svg version="1.0" xmlns="http://www.w3.org/2000/svg"
 width="500.000000pt" height="500.000000pt" viewBox="0 0 500.000000 500.000000"
 preserveAspectRatio="xMidYMid meet">

<g transform="translate(0.000000,500.000000) scale(0.100000,-0.100000)"
fill="#000000" stroke="none">
<path d="M0 2500 l0 -2500 2500 0 2500 0 0 2500 0 2500 -2500 0 -2500 0 0
-2500z m1045 486 c16 -12 12 -13 -37 -13 -78 0 -153 -20 -228 -60 -80 -43
-121 -81 -172 -158 -59 -90 -82 -177 -75 -289 2 -50 8 -100 13 -111 7 -17 6
-18 -8 -5 -9 8 -14 19 -11 23 3 4 -1 15 -8 23 -20 25 -17 189 5 254 51 149
162 266 299 317 35 13 97 23 188 32 8 0 24 -5 34 -13z m-72 -43 c-7 -2 -21 -2
-30 0 -10 3 -4 5 12 5 17 0 24 -2 18 -5z m-121 -28 c-124 -45 -230 -155 -272
-280 -13 -39 -19 -47 -15 -25 12 80 87 193 170 256 37 28 140 74 165 73 8 0
-13 -11 -48 -24z m2448 -34 c0 -5 -9 -15 -21 -22 -29 -20 -38 -76 -39 -241 0
-141 1 -148 22 -162 21 -15 17 -16 -62 -15 -61 0 -79 3 -62 9 20 9 22 16 22
85 l0 75 -80 0 -80 0 0 -85 c0 -133 -26 -175 -107 -175 l-38 1 22 18 c37 31
43 64 43 240 0 163 -1 169 -22 184 -22 15 -18 16 60 16 77 1 107 -10 62 -22
-18 -5 -20 -14 -20 -76 l0 -71 80 0 80 0 0 75 c0 105 25 149 93 165 45 11 47
11 47 1z m-1345 -93 c118 -62 127 -240 16 -315 -61 -41 -155 -55 -230 -33
-134 38 -190 192 -109 301 21 28 83 67 92 58 3 -3 -4 -24 -16 -48 -27 -56 -29
-160 -3 -215 53 -110 212 -95 245 23 26 93 -4 191 -65 217 -62 26 -124 -11
-126 -75 0 -33 -1 -34 -11 -14 -21 44 8 97 65 117 43 14 94 9 142 -16z m2235
23 c0 -5 -7 -11 -15 -15 -12 -4 -15 -33 -15 -170 0 -147 2 -166 18 -175 12 -8
-4 -10 -63 -10 -59 0 -75 2 -62 10 15 9 17 28 17 169 l0 160 -26 0 c-59 0 -82
-36 -42 -64 22 -16 22 -16 2 -16 -29 0 -57 34 -49 59 10 32 42 44 135 51 47 4
88 8 93 9 4 0 7 -3 7 -8z m372 -11 c15 0 80 -64 95 -94 20 -39 20 -123 0 -161
-77 -149 -330 -155 -415 -10 -48 83 -14 208 68 250 44 23 51 18 28 -20 -25
-43 -35 -144 -19 -202 16 -59 69 -103 124 -103 86 0 137 61 137 164 0 97 -39
157 -103 159 -51 1 -84 -25 -95 -75 l-10 -43 -1 42 c-2 75 65 120 149 101 19
-4 38 -8 42 -8z m-2253 0 c55 -15 81 -47 81 -95 0 -32 -6 -49 -26 -69 -15 -14
-33 -26 -41 -26 -14 0 89 -130 150 -188 20 -20 58 -41 93 -52 58 -18 59 -18
31 -29 -68 -27 -165 -2 -219 56 -41 45 -158 220 -151 227 4 3 14 6 23 6 28 0
54 38 53 77 -1 44 -18 62 -66 70 l-37 6 0 -162 c0 -158 0 -162 23 -171 16 -6
-3 -9 -63 -9 -47 1 -78 3 -70 6 27 11 30 26 30 179 0 146 -1 152 -22 167 -22
15 -17 16 77 16 55 1 115 -3 134 -9z m466 -4 c33 -14 35 -18 35 -62 0 -48 -5
-51 -24 -13 -29 58 -115 83 -176 52 -50 -26 -75 -75 -75 -148 1 -107 54 -165
150 -165 84 0 141 49 152 130 3 22 10 43 16 47 13 8 -1 -84 -19 -118 -22 -43
-70 -77 -120 -85 -170 -25 -303 91 -265 233 15 57 46 92 105 119 60 28 166 33
221 10z m765 -26 c0 -45 -10 -52 -25 -17 -6 13 -21 23 -37 25 -26 3 -26 3 -30
-72 l-3 -76 42 0 c50 0 73 8 73 25 0 8 5 17 10 20 6 4 10 -17 9 -57 0 -60 -1
-62 -16 -40 -12 18 -25 22 -64 22 l-49 0 0 -65 0 -65 68 0 c72 0 88 9 121 65
10 17 11 14 6 -20 -12 -81 1 -75 -173 -74 -104 0 -149 3 -134 9 22 9 22 13 22
175 0 137 -2 165 -14 165 -8 0 -18 5 -21 10 -4 6 33 10 104 10 l111 0 0 -40z
m370 -2 l0 -43 -24 30 c-29 36 -89 41 -112 10 -23 -31 -13 -47 61 -97 93 -62
125 -99 125 -144 0 -91 -66 -139 -187 -135 -43 1 -100 52 -108 95 -6 32 19
116 31 104 2 -3 -1 -17 -7 -32 -18 -39 3 -101 41 -121 38 -19 100 -19 128 1
16 11 22 25 22 53 0 41 -12 56 -94 111 -73 49 -86 65 -86 108 0 42 21 79 54
92 11 5 51 9 89 9 l67 1 0 -42z m-2830 -62 l0 -94 46 -11 c82 -21 154 -98 154
-165 0 -31 -15 -36 -109 -36 l-77 0 -13 -50 c-20 -78 -105 -150 -178 -150 -10
0 -13 24 -13 88 0 92 -8 112 -45 112 -32 0 -97 42 -122 79 -24 36 -46 101 -37
110 3 3 48 8 100 9 88 4 94 5 94 25 1 78 97 174 178 176 21 1 22 -2 22 -93z
m370 4 c52 -101 62 -255 25 -364 -23 -68 -87 -166 -138 -213 -52 -48 -154
-100 -220 -112 -64 -12 -47 10 22 28 180 46 331 252 331 451 0 62 -23 167 -45
209 -12 24 -11 41 1 41 2 0 13 -18 24 -40z m-13 -122 c-3 -8 -6 -5 -6 6 -1 11
2 17 5 13 3 -3 4 -12 1 -19z m-880 -115 c-2 -21 -4 -6 -4 32 0 39 2 55 4 38 2
-18 2 -50 0 -70z m891 1 c-5 -85 -9 -103 -42 -168 -20 -40 -57 -93 -82 -119
-41 -44 -136 -107 -159 -107 -5 0 15 14 45 31 142 81 230 229 230 390 0 38 3
69 6 69 4 0 4 -43 2 -96z m272 -249 c19 -23 -4 -22 -28 1 -22 21 -22 22 -3 17
11 -3 25 -11 31 -18z m963 -7 c9 -11 17 -29 17 -40 0 -26 -18 -58 -32 -58 -9
0 -9 3 0 12 27 27 -1 108 -38 108 -16 0 -50 -38 -50 -56 0 -25 20 -54 43 -64
22 -10 22 -10 -2 -7 -60 6 -76 93 -22 122 31 17 59 11 84 -17z m228 6 c20 -24
5 -23 -26 2 -25 20 -26 22 -8 18 12 -4 28 -13 34 -20z m240 0 c20 -24 5 -23
-26 2 -25 20 -26 22 -8 18 12 -4 28 -13 34 -20z m1202 -6 c9 -11 17 -29 17
-40 0 -26 -18 -58 -32 -58 -9 0 -9 3 0 12 27 27 10 82 -33 107 -18 11 -18 11
5 6 14 -4 33 -16 43 -27z m-2803 -37 l0 -60 33 -4 c28 -3 26 -4 -10 -5 l-43
-2 0 65 c0 37 4 65 10 65 6 0 10 -26 10 -59z m98 48 c-10 -5 -18 -17 -18 -26
0 -11 8 -14 30 -11 18 3 30 0 30 -7 0 -7 -13 -9 -35 -7 -33 4 -35 3 -27 -19 6
-14 23 -29 43 -36 l34 -12 -29 0 c-39 -1 -66 25 -66 62 0 31 24 67 44 67 6 0
3 -5 -6 -11z m169 -7 c-34 -37 -8 -101 41 -103 18 -1 21 -3 9 -6 -55 -14 -102
41 -76 89 11 21 28 37 38 38 2 0 -3 -8 -12 -18z m80 3 c8 -23 0 -25 -21 -4
-18 17 -18 19 -2 19 9 0 19 -7 23 -15z m43 -10 c0 -20 5 -25 26 -25 23 0 26 3
21 25 -3 16 0 24 7 22 18 -6 19 -39 2 -49 -15 -9 -15 -13 4 -44 16 -24 18 -34
8 -34 -7 0 -20 15 -29 32 -23 47 -42 49 -37 4 3 -25 0 -36 -9 -36 -9 0 -13 18
-13 65 0 37 4 65 10 65 6 0 10 -11 10 -25z m136 -32 c16 -32 30 -61 32 -65 2
-5 -1 -8 -7 -8 -6 0 -25 28 -41 62 -34 69 -33 68 -21 68 5 0 22 -26 37 -57z
m104 -8 c0 -45 -4 -65 -12 -65 -9 0 -12 18 -11 62 2 75 1 68 13 68 6 0 10 -28
10 -65z m88 54 c-25 -14 -24 -73 2 -99 11 -11 16 -20 10 -20 -20 0 -50 40 -50
67 0 27 25 63 44 63 6 0 3 -5 -6 -11z m74 -6 c9 -10 18 -25 21 -33 4 -11 6
-10 7 5 1 11 2 26 1 33 -1 6 3 12 9 12 5 0 10 -22 10 -49 0 -32 6 -55 16 -65
9 -9 11 -16 4 -16 -6 0 -18 13 -27 29 l-17 29 -13 -24 c-6 -14 -9 -32 -6 -42
6 -15 5 -15 -10 -3 -15 12 -15 15 -2 34 20 29 19 49 -6 81 -23 29 -11 36 13 9z
m138 2 c0 -8 -2 -15 -4 -15 -2 0 -6 7 -10 15 -3 8 -1 15 4 15 6 0 10 -7 10
-15z m30 -50 c0 -37 -4 -65 -10 -65 -6 0 -10 28 -10 65 0 37 4 65 10 65 6 0
10 -28 10 -65z m220 39 c0 -21 4 -25 23 -22 16 2 22 9 21 26 -1 26 11 29 20 6
6 -16 8 -16 24 0 10 9 23 16 28 16 5 0 1 -5 -8 -11 -25 -14 -24 -71 2 -94 12
-11 29 -16 44 -13 14 3 23 1 20 -3 -3 -5 -20 -9 -39 -9 -38 0 -65 28 -65 69 0
23 -1 24 -16 9 -15 -15 -15 -18 0 -39 18 -26 20 -39 8 -39 -5 0 -17 16 -28 35
-10 19 -22 35 -26 35 -5 0 -8 -16 -8 -35 0 -19 -4 -35 -10 -35 -6 0 -10 28
-10 65 0 37 4 65 10 65 6 0 10 -12 10 -26z m222 -39 c2 -47 0 -65 -9 -65 -9 0
-13 20 -13 65 0 84 17 84 22 0z m78 0 c0 -37 -4 -65 -10 -65 -6 0 -10 28 -10
65 0 37 4 65 10 65 6 0 10 -28 10 -65z m48 54 c-29 -16 -22 -39 12 -39 17 0
30 -4 30 -8 0 -5 -13 -7 -30 -4 -55 8 -26 -50 30 -61 19 -3 16 -5 -12 -6 -41
-1 -68 25 -68 68 0 26 26 61 44 61 6 0 3 -5 -6 -11z m115 -9 c-4 -16 2 -23 31
-35 27 -12 36 -21 36 -40 0 -13 -4 -26 -9 -29 -5 -4 -7 2 -4 13 3 13 -5 24
-31 39 -33 20 -46 48 -29 65 10 11 11 8 6 -13z m64 5 c9 -24 -1 -27 -15 -5 -8
13 -8 20 -2 20 6 0 13 -7 17 -15z m83 -50 c0 -45 -4 -65 -12 -65 -10 0 -12 18
-10 65 5 84 22 84 22 0z m40 55 c0 -5 -2 -10 -4 -10 -3 0 -8 5 -11 10 -3 6 -1
10 4 10 6 0 11 -4 11 -10z m30 -16 c0 -21 4 -25 23 -22 16 2 22 9 21 26 -1 25
14 30 23 7 3 -9 -2 -24 -10 -33 -15 -16 -15 -21 3 -50 14 -23 16 -32 7 -32 -7
0 -21 16 -30 35 -9 19 -21 35 -27 35 -5 0 -10 -16 -10 -35 0 -19 -4 -35 -10
-35 -6 0 -10 28 -10 65 0 37 4 65 10 65 6 0 10 -12 10 -26z m102 -4 c-15 -27
-16 -32 -2 -57 10 -17 28 -30 45 -34 l30 -7 -30 -1 c-35 -1 -48 6 -64 36 -18
34 3 88 36 93 1 0 -6 -13 -15 -30z m85 15 c8 -23 0 -24 -19 -3 -15 15 -16 18
-3 18 9 0 18 -7 22 -15z m110 -51 c12 -36 17 -64 11 -62 -15 5 -58 128 -44
128 6 0 21 -30 33 -66z m63 62 c0 -3 -4 -8 -10 -11 -5 -3 -10 -1 -10 4 0 6 5
11 10 11 6 0 10 -2 10 -4z m32 -3 c-39 -16 -32 -96 10 -113 20 -8 20 -9 4 -9
-29 -1 -56 29 -56 62 0 31 24 68 44 66 6 0 5 -3 -2 -6z m70 -10 c24 -21 23
-65 -3 -94 -19 -23 -20 -23 -10 -2 18 37 13 80 -11 97 -14 10 -17 16 -9 16 8
0 23 -7 33 -17z m51 -2 c-3 -13 5 -24 31 -39 35 -20 48 -53 27 -66 -5 -4 -7 2
-4 13 3 13 -5 24 -31 39 -33 20 -46 48 -29 65 10 11 11 8 6 -12z m64 4 c9 -24
-1 -27 -20 -5 -14 17 -15 20 -2 20 9 0 18 -7 22 -15z m73 -10 c0 -20 5 -25 26
-25 23 0 26 3 21 25 -3 16 0 24 7 22 17 -6 20 -38 4 -48 -7 -5 -24 -9 -37 -9
-21 0 -23 -4 -19 -35 3 -24 0 -35 -9 -35 -9 0 -13 18 -13 65 0 37 4 65 10 65
6 0 10 -11 10 -25z m100 -1 c0 -21 4 -25 23 -22 16 2 22 9 21 26 -1 25 14 30
23 7 3 -9 -2 -24 -10 -33 -15 -16 -15 -21 3 -50 14 -23 16 -32 7 -32 -7 0 -21
16 -30 35 -9 19 -21 35 -27 35 -5 0 -10 -16 -10 -35 0 -19 -4 -35 -10 -35 -6
0 -10 28 -10 65 0 37 4 65 10 65 6 0 10 -12 10 -26z m107 8 c-29 -32 -15 -85
26 -102 l22 -9 -22 0 c-31 -1 -66 46 -58 79 3 14 13 31 22 38 24 18 29 15 10
-6z m133 -46 c0 -48 -4 -67 -17 -77 -15 -12 -16 -12 -10 4 4 10 7 45 7 78 0
33 4 59 10 59 6 0 10 -28 10 -64z m47 46 c-24 -27 -21 -32 21 -34 l37 -1 -37
-4 c-21 -2 -38 -7 -38 -11 0 -20 33 -51 58 -55 25 -4 25 -4 -5 -6 -40 -1 -73
28 -73 64 0 14 9 34 20 45 25 25 39 26 17 2z m80 3 c9 -25 -2 -27 -22 -5 -17
18 -17 20 -1 20 9 0 19 -7 23 -15z m73 -50 c0 -37 -4 -65 -10 -65 -6 0 -10 28
-10 65 0 37 4 65 10 65 6 0 10 -28 10 -65z m50 55 c0 -5 -7 -7 -15 -4 -8 4
-15 8 -15 10 0 2 7 4 15 4 8 0 15 -4 15 -10z m23 -9 c-3 -13 6 -24 32 -40 27
-16 36 -27 33 -43 -2 -12 -9 -23 -16 -24 -7 -1 -8 0 -2 3 20 10 9 31 -25 52
-32 19 -45 48 -28 64 10 11 11 8 6 -12z m64 4 c9 -24 -1 -27 -20 -5 -14 17
-15 20 -2 20 9 0 18 -7 22 -15z m-1167 -43 c0 -5 -13 -7 -30 -4 -16 2 -30 6
-30 8 0 2 14 4 30 4 17 0 30 -4 30 -8z m-361 -70 c-12 -5 -39 17 -39 30 0 5
11 1 24 -9 13 -10 20 -20 15 -21z m726 0 c-6 -7 -35 18 -35 31 0 5 9 2 20 -8
11 -10 18 -20 15 -23z m750 0 c-6 -7 -35 18 -35 31 0 5 9 2 20 -8 11 -10 18
-20 15 -23z m-2641 13 c3 -8 1 -15 -4 -15 -6 0 -10 7 -10 15 0 8 2 15 4 15 2
0 6 -7 10 -15z"/>
<path d="M919 2561 c-20 -20 -29 -39 -29 -61 0 -45 47 -90 94 -90 53 0 91 37
91 90 0 84 -95 121 -156 61z"/>
</g>
</svg>
