<?xml version="1.0" standalone="no"?>
<!DOCTYPE svg PUBLIC "-//W3C//DTD SVG 20010904//EN"
 "http://www.w3.org/TR/2001/REC-SVG-20010904/DTD/svg10.dtd">
<svg version="1.0" xmlns="http://www.w3.org/2000/svg"
 width="500.000000pt" height="500.000000pt" viewBox="0 0 500.000000 500.000000"
 preserveAspectRatio="xMidYMid meet">

<g transform="translate(0.000000,500.000000) scale(0.100000,-0.100000)"
fill="#000000" stroke="none">
<path d="M0 2500 l0 -2500 2500 0 2500 0 0 2500 0 2500 -2500 0 -2500 0 0
-2500z m2552 1020 c10 0 17 -4 14 -9 -3 -5 9 -15 27 -22 29 -12 22 -13 -98
-20 -154 -8 -222 -20 -330 -61 -170 -65 -349 -201 -449 -342 -149 -209 -214
-483 -173 -730 8 -48 12 -98 10 -110 -4 -17 -3 -18 6 -6 9 12 11 11 11 -9 0
-23 -1 -23 -18 -8 -10 10 -22 14 -27 10 -4 -5 -5 -3 -2 4 9 14 -2 45 -13 38
-14 -9 -35 159 -34 275 3 304 160 610 408 796 78 59 240 138 340 165 82 22
231 40 280 33 16 -2 37 -4 48 -4z m-52 -101 c-209 -26 -288 -48 -415 -111
-228 -116 -401 -333 -471 -593 -22 -81 -30 -288 -15 -366 15 -72 8 -89 -11
-28 -8 28 -12 99 -12 194 1 134 4 160 28 240 45 149 133 297 239 405 168 171
406 269 652 268 l70 0 -65 -9z m163 -426 c4 -71 7 -160 7 -199 l0 -72 61 -11
c33 -5 85 -22 115 -35 64 -30 162 -123 193 -185 22 -42 54 -171 46 -179 -2 -3
-93 -7 -202 -11 l-198 -6 -6 -50 c-23 -174 -156 -316 -334 -356 -30 -7 -58 -9
-63 -5 -4 4 -8 85 -10 179 -1 95 -5 182 -7 193 -4 18 -18 25 -75 38 -38 8 -91
26 -117 40 -63 32 -148 118 -179 181 -26 55 -52 160 -41 171 4 4 94 9 201 12
l194 5 6 49 c16 115 86 229 178 291 58 38 156 76 199 77 l26 0 6 -127z m657
65 c0 -4 -4 -8 -9 -8 -6 0 -12 4 -15 8 -3 5 1 9 9 9 8 0 15 -4 15 -9z m54 -45
c0 -12 5 -19 11 -17 13 5 62 -95 95 -194 24 -75 50 -233 50 -314 0 -263 -129
-556 -328 -740 -74 -68 -180 -139 -264 -177 -92 -42 -235 -81 -223 -61 3 5
-14 13 -37 18 -37 9 -39 10 -13 11 17 1 58 10 91 20 198 62 361 168 478 308
177 212 258 482 226 747 -13 106 -52 241 -95 326 -14 28 -23 56 -19 62 4 6 3
8 -2 5 -6 -3 -15 2 -21 12 -10 15 -7 17 21 16 24 -2 31 -6 30 -22z m-29 -135
c61 -128 78 -213 79 -383 1 -176 -13 -241 -79 -380 -59 -124 -99 -184 -180
-266 -115 -118 -259 -203 -403 -240 -106 -27 -112 -22 -12 10 154 50 262 113
374 220 170 163 268 376 283 613 9 145 -25 324 -83 441 -25 52 -27 57 -19 57
4 0 21 -33 40 -72z m-1727 -639 c-3 -8 -7 -3 -11 10 -4 17 -3 21 5 13 5 -5 8
-16 6 -23z"/>
<path d="M2390 2679 c-32 -13 -78 -57 -96 -91 -17 -32 -18 -125 -3 -165 45
-119 234 -153 321 -56 72 80 59 223 -27 289 -31 24 -49 29 -104 31 -36 2 -77
-2 -91 -8z"/>
</g>
</svg>
